<svg xmlns="http://www.w3.org/2000/svg" width="25" height="28.235" viewBox="0 0 25 28.235">
  <path id="Icon_awesome-arrow-right" data-name="Icon awesome-arrow-right" d="M10.629,4.538,11.868,3.1a1.209,1.209,0,0,1,1.892,0L24.607,15.666a1.723,1.723,0,0,1,0,2.192L13.76,30.427a1.209,1.209,0,0,1-1.892,0l-1.239-1.435a1.731,1.731,0,0,1,.022-2.218l6.724-7.423H1.339A1.454,1.454,0,0,1,0,17.8V15.73a1.454,1.454,0,0,1,1.339-1.552H17.375L10.652,6.756A1.718,1.718,0,0,1,10.629,4.538Z" transform="translate(0 -2.647)" fill="#a0ff40"/>
</svg>
